<mxfile host="app.diagrams.net" agent="Mozilla/5.0 (Windows NT 10.0; Win64; x64) AppleWebKit/537.36 (KHTML, like Gecko) Chrome/131.0.0.0 Safari/537.36" version="25.0.1">
  <diagram name="Page-1" id="rGgKpB5m5iq16dW2CrbF">
    <mxGraphModel dx="1938" dy="998" grid="1" gridSize="10" guides="1" tooltips="1" connect="1" arrows="1" fold="1" page="1" pageScale="1" pageWidth="850" pageHeight="1100" math="0" shadow="0">
      <root>
        <mxCell id="0" />
        <mxCell id="1" parent="0" />
        <mxCell id="uVn_jafMMcIAH3ZnY_Oj-1" value="" style="endArrow=classic;html=1;rounded=0;entryX=0;entryY=0.5;entryDx=0;entryDy=0;" parent="1" edge="1">
          <mxGeometry width="50" height="50" relative="1" as="geometry">
            <mxPoint x="77.5" y="320" as="sourcePoint" />
            <mxPoint x="442.5" y="320" as="targetPoint" />
          </mxGeometry>
        </mxCell>
        <mxCell id="uVn_jafMMcIAH3ZnY_Oj-3" value="data_i" style="text;html=1;align=center;verticalAlign=middle;whiteSpace=wrap;rounded=0;" parent="1" vertex="1">
          <mxGeometry x="220" y="290" width="60" height="30" as="geometry" />
        </mxCell>
        <mxCell id="uVn_jafMMcIAH3ZnY_Oj-5" value="Line_buffer" style="rounded=0;whiteSpace=wrap;html=1;" parent="1" vertex="1">
          <mxGeometry x="200" y="360" width="160" height="40" as="geometry" />
        </mxCell>
        <mxCell id="uVn_jafMMcIAH3ZnY_Oj-12" value="Line_buffer" style="rounded=0;whiteSpace=wrap;html=1;" parent="1" vertex="1">
          <mxGeometry x="200" y="420" width="160" height="40" as="geometry" />
        </mxCell>
        <mxCell id="uVn_jafMMcIAH3ZnY_Oj-13" value="Line_buffer" style="rounded=0;whiteSpace=wrap;html=1;" parent="1" vertex="1">
          <mxGeometry x="200" y="480" width="160" height="40" as="geometry" />
        </mxCell>
        <mxCell id="uVn_jafMMcIAH3ZnY_Oj-14" value="Line_buffer" style="rounded=0;whiteSpace=wrap;html=1;" parent="1" vertex="1">
          <mxGeometry x="200" y="540" width="160" height="40" as="geometry" />
        </mxCell>
        <mxCell id="uVn_jafMMcIAH3ZnY_Oj-16" value="Line_buffer" style="rounded=0;whiteSpace=wrap;html=1;" parent="1" vertex="1">
          <mxGeometry x="200" y="600" width="160" height="40" as="geometry" />
        </mxCell>
        <mxCell id="uVn_jafMMcIAH3ZnY_Oj-17" value="Line_buffer" style="rounded=0;whiteSpace=wrap;html=1;" parent="1" vertex="1">
          <mxGeometry x="200" y="660" width="160" height="40" as="geometry" />
        </mxCell>
        <mxCell id="uVn_jafMMcIAH3ZnY_Oj-18" value="Line_buffer" style="rounded=0;whiteSpace=wrap;html=1;" parent="1" vertex="1">
          <mxGeometry x="200" y="720" width="160" height="40" as="geometry" />
        </mxCell>
        <mxCell id="uVn_jafMMcIAH3ZnY_Oj-19" value="Line_buffer" style="rounded=0;whiteSpace=wrap;html=1;" parent="1" vertex="1">
          <mxGeometry x="200" y="780" width="160" height="40" as="geometry" />
        </mxCell>
        <mxCell id="uVn_jafMMcIAH3ZnY_Oj-21" value="" style="endArrow=classic;html=1;rounded=0;entryX=0;entryY=0.5;entryDx=0;entryDy=0;" parent="1" target="uVn_jafMMcIAH3ZnY_Oj-5" edge="1">
          <mxGeometry width="50" height="50" relative="1" as="geometry">
            <mxPoint x="120" y="320" as="sourcePoint" />
            <mxPoint x="180" y="350" as="targetPoint" />
            <Array as="points">
              <mxPoint x="120" y="380" />
            </Array>
          </mxGeometry>
        </mxCell>
        <mxCell id="uVn_jafMMcIAH3ZnY_Oj-23" value="" style="endArrow=classic;html=1;rounded=0;exitX=1;exitY=0.5;exitDx=0;exitDy=0;entryX=0;entryY=0.5;entryDx=0;entryDy=0;" parent="1" source="uVn_jafMMcIAH3ZnY_Oj-5" target="uVn_jafMMcIAH3ZnY_Oj-12" edge="1">
          <mxGeometry width="50" height="50" relative="1" as="geometry">
            <mxPoint x="360" y="420" as="sourcePoint" />
            <mxPoint x="410" y="370" as="targetPoint" />
            <Array as="points">
              <mxPoint x="400" y="380" />
              <mxPoint x="400" y="410" />
              <mxPoint x="160" y="410" />
              <mxPoint x="160" y="440" />
            </Array>
          </mxGeometry>
        </mxCell>
        <mxCell id="uVn_jafMMcIAH3ZnY_Oj-25" value="" style="endArrow=classic;html=1;rounded=0;exitX=1;exitY=0.5;exitDx=0;exitDy=0;entryX=0;entryY=0.5;entryDx=0;entryDy=0;" parent="1" source="uVn_jafMMcIAH3ZnY_Oj-12" target="uVn_jafMMcIAH3ZnY_Oj-13" edge="1">
          <mxGeometry width="50" height="50" relative="1" as="geometry">
            <mxPoint x="360" y="490" as="sourcePoint" />
            <mxPoint x="410" y="440" as="targetPoint" />
            <Array as="points">
              <mxPoint x="400" y="440" />
              <mxPoint x="400" y="470" />
              <mxPoint x="160" y="470" />
              <mxPoint x="160" y="500" />
            </Array>
          </mxGeometry>
        </mxCell>
        <mxCell id="uVn_jafMMcIAH3ZnY_Oj-26" value="" style="endArrow=classic;html=1;rounded=0;exitX=1;exitY=0.5;exitDx=0;exitDy=0;entryX=0;entryY=0.5;entryDx=0;entryDy=0;" parent="1" edge="1">
          <mxGeometry width="50" height="50" relative="1" as="geometry">
            <mxPoint x="360" y="500" as="sourcePoint" />
            <mxPoint x="200" y="560" as="targetPoint" />
            <Array as="points">
              <mxPoint x="400" y="500" />
              <mxPoint x="400" y="530" />
              <mxPoint x="160" y="530" />
              <mxPoint x="160" y="560" />
            </Array>
          </mxGeometry>
        </mxCell>
        <mxCell id="uVn_jafMMcIAH3ZnY_Oj-27" value="" style="endArrow=classic;html=1;rounded=0;exitX=1;exitY=0.5;exitDx=0;exitDy=0;entryX=0;entryY=0.5;entryDx=0;entryDy=0;" parent="1" edge="1">
          <mxGeometry width="50" height="50" relative="1" as="geometry">
            <mxPoint x="360" y="560" as="sourcePoint" />
            <mxPoint x="200" y="620" as="targetPoint" />
            <Array as="points">
              <mxPoint x="400" y="560" />
              <mxPoint x="400" y="590" />
              <mxPoint x="160" y="590" />
              <mxPoint x="160" y="620" />
            </Array>
          </mxGeometry>
        </mxCell>
        <mxCell id="uVn_jafMMcIAH3ZnY_Oj-28" value="" style="endArrow=classic;html=1;rounded=0;exitX=1;exitY=0.5;exitDx=0;exitDy=0;entryX=0;entryY=0.5;entryDx=0;entryDy=0;" parent="1" edge="1">
          <mxGeometry width="50" height="50" relative="1" as="geometry">
            <mxPoint x="360" y="620" as="sourcePoint" />
            <mxPoint x="200" y="680" as="targetPoint" />
            <Array as="points">
              <mxPoint x="400" y="620" />
              <mxPoint x="400" y="650" />
              <mxPoint x="160" y="650" />
              <mxPoint x="160" y="680" />
            </Array>
          </mxGeometry>
        </mxCell>
        <mxCell id="uVn_jafMMcIAH3ZnY_Oj-29" value="" style="endArrow=classic;html=1;rounded=0;exitX=1;exitY=0.5;exitDx=0;exitDy=0;entryX=0;entryY=0.5;entryDx=0;entryDy=0;" parent="1" edge="1">
          <mxGeometry width="50" height="50" relative="1" as="geometry">
            <mxPoint x="360" y="680" as="sourcePoint" />
            <mxPoint x="200" y="740" as="targetPoint" />
            <Array as="points">
              <mxPoint x="400" y="680" />
              <mxPoint x="400" y="710" />
              <mxPoint x="160" y="710" />
              <mxPoint x="160" y="740" />
            </Array>
          </mxGeometry>
        </mxCell>
        <mxCell id="uVn_jafMMcIAH3ZnY_Oj-30" value="" style="endArrow=classic;html=1;rounded=0;exitX=1;exitY=0.5;exitDx=0;exitDy=0;entryX=0;entryY=0.5;entryDx=0;entryDy=0;" parent="1" edge="1">
          <mxGeometry width="50" height="50" relative="1" as="geometry">
            <mxPoint x="360" y="740" as="sourcePoint" />
            <mxPoint x="200" y="800" as="targetPoint" />
            <Array as="points">
              <mxPoint x="400" y="740" />
              <mxPoint x="400" y="770" />
              <mxPoint x="160" y="770" />
              <mxPoint x="160" y="800" />
            </Array>
          </mxGeometry>
        </mxCell>
        <mxCell id="uVn_jafMMcIAH3ZnY_Oj-44" value="" style="endArrow=classic;html=1;rounded=0;exitX=1;exitY=0.5;exitDx=0;exitDy=0;" parent="1" source="uVn_jafMMcIAH3ZnY_Oj-5" edge="1">
          <mxGeometry width="50" height="50" relative="1" as="geometry">
            <mxPoint x="420" y="440" as="sourcePoint" />
            <mxPoint x="439" y="380" as="targetPoint" />
          </mxGeometry>
        </mxCell>
        <mxCell id="uVn_jafMMcIAH3ZnY_Oj-54" value="" style="group" parent="1" vertex="1" connectable="0">
          <mxGeometry x="440" y="360" width="200" height="40" as="geometry" />
        </mxCell>
        <mxCell id="uVn_jafMMcIAH3ZnY_Oj-55" value="p89" style="rounded=0;whiteSpace=wrap;html=1;" parent="uVn_jafMMcIAH3ZnY_Oj-54" vertex="1">
          <mxGeometry width="40" height="40" as="geometry" />
        </mxCell>
        <mxCell id="uVn_jafMMcIAH3ZnY_Oj-56" value="" style="endArrow=classic;html=1;rounded=0;exitX=1;exitY=0.5;exitDx=0;exitDy=0;" parent="uVn_jafMMcIAH3ZnY_Oj-54" source="uVn_jafMMcIAH3ZnY_Oj-55" edge="1">
          <mxGeometry width="50" height="50" relative="1" as="geometry">
            <mxPoint x="120" y="90" as="sourcePoint" />
            <mxPoint x="80" y="20" as="targetPoint" />
          </mxGeometry>
        </mxCell>
        <mxCell id="uVn_jafMMcIAH3ZnY_Oj-57" value="p.." style="rounded=0;whiteSpace=wrap;html=1;" parent="uVn_jafMMcIAH3ZnY_Oj-54" vertex="1">
          <mxGeometry x="80" width="40" height="40" as="geometry" />
        </mxCell>
        <mxCell id="uVn_jafMMcIAH3ZnY_Oj-58" value="p81" style="rounded=0;whiteSpace=wrap;html=1;" parent="uVn_jafMMcIAH3ZnY_Oj-54" vertex="1">
          <mxGeometry x="160" width="40" height="40" as="geometry" />
        </mxCell>
        <mxCell id="uVn_jafMMcIAH3ZnY_Oj-59" value="" style="endArrow=classic;html=1;rounded=0;exitX=1;exitY=0.5;exitDx=0;exitDy=0;entryX=0;entryY=0.5;entryDx=0;entryDy=0;" parent="uVn_jafMMcIAH3ZnY_Oj-54" source="uVn_jafMMcIAH3ZnY_Oj-57" target="uVn_jafMMcIAH3ZnY_Oj-58" edge="1">
          <mxGeometry width="50" height="50" relative="1" as="geometry">
            <mxPoint x="190" y="105" as="sourcePoint" />
            <mxPoint x="240" y="55" as="targetPoint" />
          </mxGeometry>
        </mxCell>
        <mxCell id="uVn_jafMMcIAH3ZnY_Oj-85" value="" style="group" parent="1" vertex="1" connectable="0">
          <mxGeometry x="440" y="420" width="200" height="40" as="geometry" />
        </mxCell>
        <mxCell id="uVn_jafMMcIAH3ZnY_Oj-86" value="p79" style="rounded=0;whiteSpace=wrap;html=1;" parent="uVn_jafMMcIAH3ZnY_Oj-85" vertex="1">
          <mxGeometry width="40" height="40" as="geometry" />
        </mxCell>
        <mxCell id="uVn_jafMMcIAH3ZnY_Oj-87" value="" style="endArrow=classic;html=1;rounded=0;exitX=1;exitY=0.5;exitDx=0;exitDy=0;" parent="uVn_jafMMcIAH3ZnY_Oj-85" source="uVn_jafMMcIAH3ZnY_Oj-86" edge="1">
          <mxGeometry width="50" height="50" relative="1" as="geometry">
            <mxPoint x="120" y="90" as="sourcePoint" />
            <mxPoint x="80" y="20" as="targetPoint" />
          </mxGeometry>
        </mxCell>
        <mxCell id="uVn_jafMMcIAH3ZnY_Oj-88" value="p.." style="rounded=0;whiteSpace=wrap;html=1;" parent="uVn_jafMMcIAH3ZnY_Oj-85" vertex="1">
          <mxGeometry x="80" width="40" height="40" as="geometry" />
        </mxCell>
        <mxCell id="uVn_jafMMcIAH3ZnY_Oj-89" value="p71" style="rounded=0;whiteSpace=wrap;html=1;" parent="uVn_jafMMcIAH3ZnY_Oj-85" vertex="1">
          <mxGeometry x="160" width="40" height="40" as="geometry" />
        </mxCell>
        <mxCell id="uVn_jafMMcIAH3ZnY_Oj-90" value="" style="endArrow=classic;html=1;rounded=0;exitX=1;exitY=0.5;exitDx=0;exitDy=0;entryX=0;entryY=0.5;entryDx=0;entryDy=0;" parent="uVn_jafMMcIAH3ZnY_Oj-85" source="uVn_jafMMcIAH3ZnY_Oj-88" target="uVn_jafMMcIAH3ZnY_Oj-89" edge="1">
          <mxGeometry width="50" height="50" relative="1" as="geometry">
            <mxPoint x="190" y="105" as="sourcePoint" />
            <mxPoint x="240" y="55" as="targetPoint" />
          </mxGeometry>
        </mxCell>
        <mxCell id="uVn_jafMMcIAH3ZnY_Oj-91" value="" style="group" parent="1" vertex="1" connectable="0">
          <mxGeometry x="440" y="480" width="200" height="40" as="geometry" />
        </mxCell>
        <mxCell id="uVn_jafMMcIAH3ZnY_Oj-92" value="p69" style="rounded=0;whiteSpace=wrap;html=1;" parent="uVn_jafMMcIAH3ZnY_Oj-91" vertex="1">
          <mxGeometry width="40" height="40" as="geometry" />
        </mxCell>
        <mxCell id="uVn_jafMMcIAH3ZnY_Oj-93" value="" style="endArrow=classic;html=1;rounded=0;exitX=1;exitY=0.5;exitDx=0;exitDy=0;" parent="uVn_jafMMcIAH3ZnY_Oj-91" source="uVn_jafMMcIAH3ZnY_Oj-92" edge="1">
          <mxGeometry width="50" height="50" relative="1" as="geometry">
            <mxPoint x="120" y="90" as="sourcePoint" />
            <mxPoint x="80" y="20" as="targetPoint" />
          </mxGeometry>
        </mxCell>
        <mxCell id="uVn_jafMMcIAH3ZnY_Oj-94" value="p.." style="rounded=0;whiteSpace=wrap;html=1;" parent="uVn_jafMMcIAH3ZnY_Oj-91" vertex="1">
          <mxGeometry x="80" width="40" height="40" as="geometry" />
        </mxCell>
        <mxCell id="uVn_jafMMcIAH3ZnY_Oj-95" value="p61" style="rounded=0;whiteSpace=wrap;html=1;" parent="uVn_jafMMcIAH3ZnY_Oj-91" vertex="1">
          <mxGeometry x="160" width="40" height="40" as="geometry" />
        </mxCell>
        <mxCell id="uVn_jafMMcIAH3ZnY_Oj-96" value="" style="endArrow=classic;html=1;rounded=0;exitX=1;exitY=0.5;exitDx=0;exitDy=0;entryX=0;entryY=0.5;entryDx=0;entryDy=0;" parent="uVn_jafMMcIAH3ZnY_Oj-91" source="uVn_jafMMcIAH3ZnY_Oj-94" target="uVn_jafMMcIAH3ZnY_Oj-95" edge="1">
          <mxGeometry width="50" height="50" relative="1" as="geometry">
            <mxPoint x="190" y="105" as="sourcePoint" />
            <mxPoint x="240" y="55" as="targetPoint" />
          </mxGeometry>
        </mxCell>
        <mxCell id="uVn_jafMMcIAH3ZnY_Oj-97" value="" style="group" parent="1" vertex="1" connectable="0">
          <mxGeometry x="440" y="540" width="200" height="40" as="geometry" />
        </mxCell>
        <mxCell id="uVn_jafMMcIAH3ZnY_Oj-98" value="p69" style="rounded=0;whiteSpace=wrap;html=1;" parent="uVn_jafMMcIAH3ZnY_Oj-97" vertex="1">
          <mxGeometry width="40" height="40" as="geometry" />
        </mxCell>
        <mxCell id="uVn_jafMMcIAH3ZnY_Oj-99" value="" style="endArrow=classic;html=1;rounded=0;exitX=1;exitY=0.5;exitDx=0;exitDy=0;" parent="uVn_jafMMcIAH3ZnY_Oj-97" source="uVn_jafMMcIAH3ZnY_Oj-98" edge="1">
          <mxGeometry width="50" height="50" relative="1" as="geometry">
            <mxPoint x="120" y="90" as="sourcePoint" />
            <mxPoint x="80" y="20" as="targetPoint" />
          </mxGeometry>
        </mxCell>
        <mxCell id="uVn_jafMMcIAH3ZnY_Oj-100" value="p.." style="rounded=0;whiteSpace=wrap;html=1;" parent="uVn_jafMMcIAH3ZnY_Oj-97" vertex="1">
          <mxGeometry x="80" width="40" height="40" as="geometry" />
        </mxCell>
        <mxCell id="uVn_jafMMcIAH3ZnY_Oj-101" value="p51" style="rounded=0;whiteSpace=wrap;html=1;" parent="uVn_jafMMcIAH3ZnY_Oj-97" vertex="1">
          <mxGeometry x="160" width="40" height="40" as="geometry" />
        </mxCell>
        <mxCell id="uVn_jafMMcIAH3ZnY_Oj-102" value="" style="endArrow=classic;html=1;rounded=0;exitX=1;exitY=0.5;exitDx=0;exitDy=0;entryX=0;entryY=0.5;entryDx=0;entryDy=0;" parent="uVn_jafMMcIAH3ZnY_Oj-97" source="uVn_jafMMcIAH3ZnY_Oj-100" target="uVn_jafMMcIAH3ZnY_Oj-101" edge="1">
          <mxGeometry width="50" height="50" relative="1" as="geometry">
            <mxPoint x="190" y="105" as="sourcePoint" />
            <mxPoint x="240" y="55" as="targetPoint" />
          </mxGeometry>
        </mxCell>
        <mxCell id="uVn_jafMMcIAH3ZnY_Oj-103" value="" style="group" parent="1" vertex="1" connectable="0">
          <mxGeometry x="440" y="600" width="200" height="40" as="geometry" />
        </mxCell>
        <mxCell id="uVn_jafMMcIAH3ZnY_Oj-104" value="p49" style="rounded=0;whiteSpace=wrap;html=1;" parent="uVn_jafMMcIAH3ZnY_Oj-103" vertex="1">
          <mxGeometry width="40" height="40" as="geometry" />
        </mxCell>
        <mxCell id="uVn_jafMMcIAH3ZnY_Oj-105" value="" style="endArrow=classic;html=1;rounded=0;exitX=1;exitY=0.5;exitDx=0;exitDy=0;" parent="uVn_jafMMcIAH3ZnY_Oj-103" source="uVn_jafMMcIAH3ZnY_Oj-104" edge="1">
          <mxGeometry width="50" height="50" relative="1" as="geometry">
            <mxPoint x="120" y="90" as="sourcePoint" />
            <mxPoint x="80" y="20" as="targetPoint" />
          </mxGeometry>
        </mxCell>
        <mxCell id="uVn_jafMMcIAH3ZnY_Oj-106" value="p.." style="rounded=0;whiteSpace=wrap;html=1;" parent="uVn_jafMMcIAH3ZnY_Oj-103" vertex="1">
          <mxGeometry x="80" width="40" height="40" as="geometry" />
        </mxCell>
        <mxCell id="uVn_jafMMcIAH3ZnY_Oj-107" value="p41" style="rounded=0;whiteSpace=wrap;html=1;" parent="uVn_jafMMcIAH3ZnY_Oj-103" vertex="1">
          <mxGeometry x="160" width="40" height="40" as="geometry" />
        </mxCell>
        <mxCell id="uVn_jafMMcIAH3ZnY_Oj-108" value="" style="endArrow=classic;html=1;rounded=0;exitX=1;exitY=0.5;exitDx=0;exitDy=0;entryX=0;entryY=0.5;entryDx=0;entryDy=0;" parent="uVn_jafMMcIAH3ZnY_Oj-103" source="uVn_jafMMcIAH3ZnY_Oj-106" target="uVn_jafMMcIAH3ZnY_Oj-107" edge="1">
          <mxGeometry width="50" height="50" relative="1" as="geometry">
            <mxPoint x="190" y="105" as="sourcePoint" />
            <mxPoint x="240" y="55" as="targetPoint" />
          </mxGeometry>
        </mxCell>
        <mxCell id="uVn_jafMMcIAH3ZnY_Oj-109" value="" style="group" parent="1" vertex="1" connectable="0">
          <mxGeometry x="440" y="660" width="200" height="40" as="geometry" />
        </mxCell>
        <mxCell id="uVn_jafMMcIAH3ZnY_Oj-110" value="p39" style="rounded=0;whiteSpace=wrap;html=1;" parent="uVn_jafMMcIAH3ZnY_Oj-109" vertex="1">
          <mxGeometry width="40" height="40" as="geometry" />
        </mxCell>
        <mxCell id="uVn_jafMMcIAH3ZnY_Oj-111" value="" style="endArrow=classic;html=1;rounded=0;exitX=1;exitY=0.5;exitDx=0;exitDy=0;" parent="uVn_jafMMcIAH3ZnY_Oj-109" source="uVn_jafMMcIAH3ZnY_Oj-110" edge="1">
          <mxGeometry width="50" height="50" relative="1" as="geometry">
            <mxPoint x="120" y="90" as="sourcePoint" />
            <mxPoint x="80" y="20" as="targetPoint" />
          </mxGeometry>
        </mxCell>
        <mxCell id="uVn_jafMMcIAH3ZnY_Oj-112" value="p.." style="rounded=0;whiteSpace=wrap;html=1;" parent="uVn_jafMMcIAH3ZnY_Oj-109" vertex="1">
          <mxGeometry x="80" width="40" height="40" as="geometry" />
        </mxCell>
        <mxCell id="uVn_jafMMcIAH3ZnY_Oj-113" value="p31" style="rounded=0;whiteSpace=wrap;html=1;" parent="uVn_jafMMcIAH3ZnY_Oj-109" vertex="1">
          <mxGeometry x="160" width="40" height="40" as="geometry" />
        </mxCell>
        <mxCell id="uVn_jafMMcIAH3ZnY_Oj-114" value="" style="endArrow=classic;html=1;rounded=0;exitX=1;exitY=0.5;exitDx=0;exitDy=0;entryX=0;entryY=0.5;entryDx=0;entryDy=0;" parent="uVn_jafMMcIAH3ZnY_Oj-109" source="uVn_jafMMcIAH3ZnY_Oj-112" target="uVn_jafMMcIAH3ZnY_Oj-113" edge="1">
          <mxGeometry width="50" height="50" relative="1" as="geometry">
            <mxPoint x="190" y="105" as="sourcePoint" />
            <mxPoint x="240" y="55" as="targetPoint" />
          </mxGeometry>
        </mxCell>
        <mxCell id="uVn_jafMMcIAH3ZnY_Oj-115" value="" style="group" parent="1" vertex="1" connectable="0">
          <mxGeometry x="440" y="720" width="200" height="40" as="geometry" />
        </mxCell>
        <mxCell id="uVn_jafMMcIAH3ZnY_Oj-116" value="p29" style="rounded=0;whiteSpace=wrap;html=1;" parent="uVn_jafMMcIAH3ZnY_Oj-115" vertex="1">
          <mxGeometry width="40" height="40" as="geometry" />
        </mxCell>
        <mxCell id="uVn_jafMMcIAH3ZnY_Oj-117" value="" style="endArrow=classic;html=1;rounded=0;exitX=1;exitY=0.5;exitDx=0;exitDy=0;" parent="uVn_jafMMcIAH3ZnY_Oj-115" source="uVn_jafMMcIAH3ZnY_Oj-116" edge="1">
          <mxGeometry width="50" height="50" relative="1" as="geometry">
            <mxPoint x="120" y="90" as="sourcePoint" />
            <mxPoint x="80" y="20" as="targetPoint" />
          </mxGeometry>
        </mxCell>
        <mxCell id="uVn_jafMMcIAH3ZnY_Oj-118" value="p.." style="rounded=0;whiteSpace=wrap;html=1;" parent="uVn_jafMMcIAH3ZnY_Oj-115" vertex="1">
          <mxGeometry x="80" width="40" height="40" as="geometry" />
        </mxCell>
        <mxCell id="uVn_jafMMcIAH3ZnY_Oj-119" value="p21" style="rounded=0;whiteSpace=wrap;html=1;" parent="uVn_jafMMcIAH3ZnY_Oj-115" vertex="1">
          <mxGeometry x="160" width="40" height="40" as="geometry" />
        </mxCell>
        <mxCell id="uVn_jafMMcIAH3ZnY_Oj-120" value="" style="endArrow=classic;html=1;rounded=0;exitX=1;exitY=0.5;exitDx=0;exitDy=0;entryX=0;entryY=0.5;entryDx=0;entryDy=0;" parent="uVn_jafMMcIAH3ZnY_Oj-115" source="uVn_jafMMcIAH3ZnY_Oj-118" target="uVn_jafMMcIAH3ZnY_Oj-119" edge="1">
          <mxGeometry width="50" height="50" relative="1" as="geometry">
            <mxPoint x="190" y="105" as="sourcePoint" />
            <mxPoint x="240" y="55" as="targetPoint" />
          </mxGeometry>
        </mxCell>
        <mxCell id="uVn_jafMMcIAH3ZnY_Oj-121" value="" style="endArrow=classic;html=1;rounded=0;exitX=1;exitY=0.5;exitDx=0;exitDy=0;" parent="1" edge="1">
          <mxGeometry width="50" height="50" relative="1" as="geometry">
            <mxPoint x="361" y="439.67" as="sourcePoint" />
            <mxPoint x="440" y="439.67" as="targetPoint" />
          </mxGeometry>
        </mxCell>
        <mxCell id="uVn_jafMMcIAH3ZnY_Oj-122" value="" style="endArrow=classic;html=1;rounded=0;exitX=1;exitY=0.5;exitDx=0;exitDy=0;" parent="1" edge="1">
          <mxGeometry width="50" height="50" relative="1" as="geometry">
            <mxPoint x="361" y="499.67" as="sourcePoint" />
            <mxPoint x="440" y="499.67" as="targetPoint" />
          </mxGeometry>
        </mxCell>
        <mxCell id="uVn_jafMMcIAH3ZnY_Oj-123" value="" style="endArrow=classic;html=1;rounded=0;exitX=1;exitY=0.5;exitDx=0;exitDy=0;" parent="1" edge="1">
          <mxGeometry width="50" height="50" relative="1" as="geometry">
            <mxPoint x="360" y="559.6700000000001" as="sourcePoint" />
            <mxPoint x="439" y="559.6700000000001" as="targetPoint" />
          </mxGeometry>
        </mxCell>
        <mxCell id="uVn_jafMMcIAH3ZnY_Oj-124" value="" style="endArrow=classic;html=1;rounded=0;exitX=1;exitY=0.5;exitDx=0;exitDy=0;" parent="1" edge="1">
          <mxGeometry width="50" height="50" relative="1" as="geometry">
            <mxPoint x="360" y="619.6700000000001" as="sourcePoint" />
            <mxPoint x="439" y="619.6700000000001" as="targetPoint" />
          </mxGeometry>
        </mxCell>
        <mxCell id="uVn_jafMMcIAH3ZnY_Oj-125" value="" style="endArrow=classic;html=1;rounded=0;exitX=1;exitY=0.5;exitDx=0;exitDy=0;" parent="1" edge="1">
          <mxGeometry width="50" height="50" relative="1" as="geometry">
            <mxPoint x="361" y="679.6700000000001" as="sourcePoint" />
            <mxPoint x="440" y="679.6700000000001" as="targetPoint" />
          </mxGeometry>
        </mxCell>
        <mxCell id="uVn_jafMMcIAH3ZnY_Oj-126" value="" style="endArrow=classic;html=1;rounded=0;exitX=1;exitY=0.5;exitDx=0;exitDy=0;" parent="1" edge="1">
          <mxGeometry width="50" height="50" relative="1" as="geometry">
            <mxPoint x="361" y="739.6700000000001" as="sourcePoint" />
            <mxPoint x="440" y="739.6700000000001" as="targetPoint" />
          </mxGeometry>
        </mxCell>
        <mxCell id="uVn_jafMMcIAH3ZnY_Oj-127" value="" style="group" parent="1" vertex="1" connectable="0">
          <mxGeometry x="440" y="780" width="200" height="40" as="geometry" />
        </mxCell>
        <mxCell id="uVn_jafMMcIAH3ZnY_Oj-128" value="p19" style="rounded=0;whiteSpace=wrap;html=1;" parent="uVn_jafMMcIAH3ZnY_Oj-127" vertex="1">
          <mxGeometry width="40" height="40" as="geometry" />
        </mxCell>
        <mxCell id="uVn_jafMMcIAH3ZnY_Oj-129" value="" style="endArrow=classic;html=1;rounded=0;exitX=1;exitY=0.5;exitDx=0;exitDy=0;" parent="uVn_jafMMcIAH3ZnY_Oj-127" source="uVn_jafMMcIAH3ZnY_Oj-128" edge="1">
          <mxGeometry width="50" height="50" relative="1" as="geometry">
            <mxPoint x="120" y="90" as="sourcePoint" />
            <mxPoint x="80" y="20" as="targetPoint" />
          </mxGeometry>
        </mxCell>
        <mxCell id="uVn_jafMMcIAH3ZnY_Oj-130" value="p.." style="rounded=0;whiteSpace=wrap;html=1;" parent="uVn_jafMMcIAH3ZnY_Oj-127" vertex="1">
          <mxGeometry x="80" width="40" height="40" as="geometry" />
        </mxCell>
        <mxCell id="uVn_jafMMcIAH3ZnY_Oj-131" value="p11" style="rounded=0;whiteSpace=wrap;html=1;" parent="uVn_jafMMcIAH3ZnY_Oj-127" vertex="1">
          <mxGeometry x="160" width="40" height="40" as="geometry" />
        </mxCell>
        <mxCell id="uVn_jafMMcIAH3ZnY_Oj-132" value="" style="endArrow=classic;html=1;rounded=0;exitX=1;exitY=0.5;exitDx=0;exitDy=0;entryX=0;entryY=0.5;entryDx=0;entryDy=0;" parent="uVn_jafMMcIAH3ZnY_Oj-127" source="uVn_jafMMcIAH3ZnY_Oj-130" target="uVn_jafMMcIAH3ZnY_Oj-131" edge="1">
          <mxGeometry width="50" height="50" relative="1" as="geometry">
            <mxPoint x="190" y="105" as="sourcePoint" />
            <mxPoint x="240" y="55" as="targetPoint" />
          </mxGeometry>
        </mxCell>
        <mxCell id="uVn_jafMMcIAH3ZnY_Oj-133" value="" style="endArrow=classic;html=1;rounded=0;exitX=1;exitY=0.5;exitDx=0;exitDy=0;" parent="1" edge="1">
          <mxGeometry width="50" height="50" relative="1" as="geometry">
            <mxPoint x="361" y="799.6" as="sourcePoint" />
            <mxPoint x="440" y="799.6" as="targetPoint" />
          </mxGeometry>
        </mxCell>
        <mxCell id="uVn_jafMMcIAH3ZnY_Oj-134" value="" style="shape=flexArrow;endArrow=classic;html=1;rounded=0;" parent="1" edge="1">
          <mxGeometry width="50" height="50" relative="1" as="geometry">
            <mxPoint x="680" y="520" as="sourcePoint" />
            <mxPoint x="810" y="520" as="targetPoint" />
          </mxGeometry>
        </mxCell>
        <mxCell id="uVn_jafMMcIAH3ZnY_Oj-48" value="p99" style="rounded=0;whiteSpace=wrap;html=1;" parent="1" vertex="1">
          <mxGeometry x="440" y="300" width="40" height="40" as="geometry" />
        </mxCell>
        <mxCell id="uVn_jafMMcIAH3ZnY_Oj-49" value="" style="endArrow=classic;html=1;rounded=0;exitX=1;exitY=0.5;exitDx=0;exitDy=0;" parent="1" source="uVn_jafMMcIAH3ZnY_Oj-48" edge="1">
          <mxGeometry width="50" height="50" relative="1" as="geometry">
            <mxPoint x="560" y="390" as="sourcePoint" />
            <mxPoint x="520" y="320" as="targetPoint" />
          </mxGeometry>
        </mxCell>
        <mxCell id="uVn_jafMMcIAH3ZnY_Oj-50" value="p.." style="rounded=0;whiteSpace=wrap;html=1;" parent="1" vertex="1">
          <mxGeometry x="520" y="300" width="40" height="40" as="geometry" />
        </mxCell>
        <mxCell id="uVn_jafMMcIAH3ZnY_Oj-51" value="p91" style="rounded=0;whiteSpace=wrap;html=1;" parent="1" vertex="1">
          <mxGeometry x="600" y="300" width="40" height="40" as="geometry" />
        </mxCell>
        <mxCell id="uVn_jafMMcIAH3ZnY_Oj-52" value="" style="endArrow=classic;html=1;rounded=0;exitX=1;exitY=0.5;exitDx=0;exitDy=0;entryX=0;entryY=0.5;entryDx=0;entryDy=0;" parent="1" source="uVn_jafMMcIAH3ZnY_Oj-50" target="uVn_jafMMcIAH3ZnY_Oj-51" edge="1">
          <mxGeometry width="50" height="50" relative="1" as="geometry">
            <mxPoint x="630" y="405" as="sourcePoint" />
            <mxPoint x="680" y="355" as="targetPoint" />
          </mxGeometry>
        </mxCell>
        <mxCell id="uVn_jafMMcIAH3ZnY_Oj-136" value="p11" style="rounded=0;whiteSpace=wrap;html=1;container=0;" parent="1" vertex="1">
          <mxGeometry x="840" y="370" width="40" height="40" as="geometry" />
        </mxCell>
        <mxCell id="uVn_jafMMcIAH3ZnY_Oj-137" value="p12" style="rounded=0;whiteSpace=wrap;html=1;container=0;" parent="1" vertex="1">
          <mxGeometry x="880" y="370" width="40" height="40" as="geometry" />
        </mxCell>
        <mxCell id="uVn_jafMMcIAH3ZnY_Oj-138" value="p13" style="rounded=0;whiteSpace=wrap;html=1;container=0;" parent="1" vertex="1">
          <mxGeometry x="920" y="370" width="40" height="40" as="geometry" />
        </mxCell>
        <mxCell id="uVn_jafMMcIAH3ZnY_Oj-139" value="p14" style="rounded=0;whiteSpace=wrap;html=1;container=0;" parent="1" vertex="1">
          <mxGeometry x="960" y="370" width="40" height="40" as="geometry" />
        </mxCell>
        <mxCell id="uVn_jafMMcIAH3ZnY_Oj-140" value="p15" style="rounded=0;whiteSpace=wrap;html=1;container=0;" parent="1" vertex="1">
          <mxGeometry x="1000" y="370" width="40" height="40" as="geometry" />
        </mxCell>
        <mxCell id="uVn_jafMMcIAH3ZnY_Oj-141" value="p16" style="rounded=0;whiteSpace=wrap;html=1;container=0;" parent="1" vertex="1">
          <mxGeometry x="1040" y="370" width="40" height="40" as="geometry" />
        </mxCell>
        <mxCell id="uVn_jafMMcIAH3ZnY_Oj-142" value="p17" style="rounded=0;whiteSpace=wrap;html=1;container=0;" parent="1" vertex="1">
          <mxGeometry x="1080" y="370" width="40" height="40" as="geometry" />
        </mxCell>
        <mxCell id="uVn_jafMMcIAH3ZnY_Oj-143" value="p18" style="rounded=0;whiteSpace=wrap;html=1;container=0;" parent="1" vertex="1">
          <mxGeometry x="1120" y="370" width="40" height="40" as="geometry" />
        </mxCell>
        <mxCell id="uVn_jafMMcIAH3ZnY_Oj-144" value="p19" style="rounded=0;whiteSpace=wrap;html=1;container=0;" parent="1" vertex="1">
          <mxGeometry x="1160" y="370" width="40" height="40" as="geometry" />
        </mxCell>
        <mxCell id="uVn_jafMMcIAH3ZnY_Oj-156" value="p21" style="rounded=0;whiteSpace=wrap;html=1;container=0;" parent="1" vertex="1">
          <mxGeometry x="840" y="410" width="40" height="40" as="geometry" />
        </mxCell>
        <mxCell id="uVn_jafMMcIAH3ZnY_Oj-157" value="p22" style="rounded=0;whiteSpace=wrap;html=1;container=0;" parent="1" vertex="1">
          <mxGeometry x="880" y="410" width="40" height="40" as="geometry" />
        </mxCell>
        <mxCell id="uVn_jafMMcIAH3ZnY_Oj-158" value="p23" style="rounded=0;whiteSpace=wrap;html=1;container=0;" parent="1" vertex="1">
          <mxGeometry x="920" y="410" width="40" height="40" as="geometry" />
        </mxCell>
        <mxCell id="uVn_jafMMcIAH3ZnY_Oj-159" value="p24" style="rounded=0;whiteSpace=wrap;html=1;container=0;" parent="1" vertex="1">
          <mxGeometry x="960" y="410" width="40" height="40" as="geometry" />
        </mxCell>
        <mxCell id="uVn_jafMMcIAH3ZnY_Oj-160" value="p25" style="rounded=0;whiteSpace=wrap;html=1;container=0;" parent="1" vertex="1">
          <mxGeometry x="1000" y="410" width="40" height="40" as="geometry" />
        </mxCell>
        <mxCell id="uVn_jafMMcIAH3ZnY_Oj-161" value="p26" style="rounded=0;whiteSpace=wrap;html=1;container=0;" parent="1" vertex="1">
          <mxGeometry x="1040" y="410" width="40" height="40" as="geometry" />
        </mxCell>
        <mxCell id="uVn_jafMMcIAH3ZnY_Oj-162" value="p27" style="rounded=0;whiteSpace=wrap;html=1;container=0;" parent="1" vertex="1">
          <mxGeometry x="1080" y="410" width="40" height="40" as="geometry" />
        </mxCell>
        <mxCell id="uVn_jafMMcIAH3ZnY_Oj-163" value="p28" style="rounded=0;whiteSpace=wrap;html=1;container=0;" parent="1" vertex="1">
          <mxGeometry x="1120" y="410" width="40" height="40" as="geometry" />
        </mxCell>
        <mxCell id="uVn_jafMMcIAH3ZnY_Oj-164" value="p29" style="rounded=0;whiteSpace=wrap;html=1;container=0;" parent="1" vertex="1">
          <mxGeometry x="1160" y="410" width="40" height="40" as="geometry" />
        </mxCell>
        <mxCell id="uVn_jafMMcIAH3ZnY_Oj-166" value="p31" style="rounded=0;whiteSpace=wrap;html=1;container=0;" parent="1" vertex="1">
          <mxGeometry x="840" y="450" width="40" height="40" as="geometry" />
        </mxCell>
        <mxCell id="uVn_jafMMcIAH3ZnY_Oj-167" value="p32" style="rounded=0;whiteSpace=wrap;html=1;container=0;" parent="1" vertex="1">
          <mxGeometry x="880" y="450" width="40" height="40" as="geometry" />
        </mxCell>
        <mxCell id="uVn_jafMMcIAH3ZnY_Oj-168" value="p33" style="rounded=0;whiteSpace=wrap;html=1;container=0;" parent="1" vertex="1">
          <mxGeometry x="920" y="450" width="40" height="40" as="geometry" />
        </mxCell>
        <mxCell id="uVn_jafMMcIAH3ZnY_Oj-169" value="p34" style="rounded=0;whiteSpace=wrap;html=1;container=0;" parent="1" vertex="1">
          <mxGeometry x="960" y="450" width="40" height="40" as="geometry" />
        </mxCell>
        <mxCell id="uVn_jafMMcIAH3ZnY_Oj-170" value="p35" style="rounded=0;whiteSpace=wrap;html=1;container=0;" parent="1" vertex="1">
          <mxGeometry x="1000" y="450" width="40" height="40" as="geometry" />
        </mxCell>
        <mxCell id="uVn_jafMMcIAH3ZnY_Oj-171" value="p36" style="rounded=0;whiteSpace=wrap;html=1;container=0;" parent="1" vertex="1">
          <mxGeometry x="1040" y="450" width="40" height="40" as="geometry" />
        </mxCell>
        <mxCell id="uVn_jafMMcIAH3ZnY_Oj-172" value="p37" style="rounded=0;whiteSpace=wrap;html=1;container=0;" parent="1" vertex="1">
          <mxGeometry x="1080" y="450" width="40" height="40" as="geometry" />
        </mxCell>
        <mxCell id="uVn_jafMMcIAH3ZnY_Oj-173" value="p38" style="rounded=0;whiteSpace=wrap;html=1;container=0;" parent="1" vertex="1">
          <mxGeometry x="1120" y="450" width="40" height="40" as="geometry" />
        </mxCell>
        <mxCell id="uVn_jafMMcIAH3ZnY_Oj-174" value="p39" style="rounded=0;whiteSpace=wrap;html=1;container=0;" parent="1" vertex="1">
          <mxGeometry x="1160" y="450" width="40" height="40" as="geometry" />
        </mxCell>
        <mxCell id="uVn_jafMMcIAH3ZnY_Oj-176" value="p41" style="rounded=0;whiteSpace=wrap;html=1;container=0;" parent="1" vertex="1">
          <mxGeometry x="840" y="490" width="40" height="40" as="geometry" />
        </mxCell>
        <mxCell id="uVn_jafMMcIAH3ZnY_Oj-177" value="p42" style="rounded=0;whiteSpace=wrap;html=1;container=0;" parent="1" vertex="1">
          <mxGeometry x="880" y="490" width="40" height="40" as="geometry" />
        </mxCell>
        <mxCell id="uVn_jafMMcIAH3ZnY_Oj-178" value="p43" style="rounded=0;whiteSpace=wrap;html=1;container=0;" parent="1" vertex="1">
          <mxGeometry x="920" y="490" width="40" height="40" as="geometry" />
        </mxCell>
        <mxCell id="uVn_jafMMcIAH3ZnY_Oj-179" value="p44" style="rounded=0;whiteSpace=wrap;html=1;container=0;" parent="1" vertex="1">
          <mxGeometry x="960" y="490" width="40" height="40" as="geometry" />
        </mxCell>
        <mxCell id="uVn_jafMMcIAH3ZnY_Oj-180" value="p45" style="rounded=0;whiteSpace=wrap;html=1;container=0;" parent="1" vertex="1">
          <mxGeometry x="1000" y="490" width="40" height="40" as="geometry" />
        </mxCell>
        <mxCell id="uVn_jafMMcIAH3ZnY_Oj-181" value="p46" style="rounded=0;whiteSpace=wrap;html=1;container=0;" parent="1" vertex="1">
          <mxGeometry x="1040" y="490" width="40" height="40" as="geometry" />
        </mxCell>
        <mxCell id="uVn_jafMMcIAH3ZnY_Oj-182" value="p47" style="rounded=0;whiteSpace=wrap;html=1;container=0;" parent="1" vertex="1">
          <mxGeometry x="1080" y="490" width="40" height="40" as="geometry" />
        </mxCell>
        <mxCell id="uVn_jafMMcIAH3ZnY_Oj-183" value="p48" style="rounded=0;whiteSpace=wrap;html=1;container=0;" parent="1" vertex="1">
          <mxGeometry x="1120" y="490" width="40" height="40" as="geometry" />
        </mxCell>
        <mxCell id="uVn_jafMMcIAH3ZnY_Oj-184" value="p49" style="rounded=0;whiteSpace=wrap;html=1;container=0;" parent="1" vertex="1">
          <mxGeometry x="1160" y="490" width="40" height="40" as="geometry" />
        </mxCell>
        <mxCell id="uVn_jafMMcIAH3ZnY_Oj-186" value="p51" style="rounded=0;whiteSpace=wrap;html=1;container=0;" parent="1" vertex="1">
          <mxGeometry x="840" y="530" width="40" height="40" as="geometry" />
        </mxCell>
        <mxCell id="uVn_jafMMcIAH3ZnY_Oj-187" value="p52" style="rounded=0;whiteSpace=wrap;html=1;container=0;" parent="1" vertex="1">
          <mxGeometry x="880" y="530" width="40" height="40" as="geometry" />
        </mxCell>
        <mxCell id="uVn_jafMMcIAH3ZnY_Oj-188" value="p53" style="rounded=0;whiteSpace=wrap;html=1;container=0;" parent="1" vertex="1">
          <mxGeometry x="920" y="530" width="40" height="40" as="geometry" />
        </mxCell>
        <mxCell id="uVn_jafMMcIAH3ZnY_Oj-189" value="p54" style="rounded=0;whiteSpace=wrap;html=1;container=0;" parent="1" vertex="1">
          <mxGeometry x="960" y="530" width="40" height="40" as="geometry" />
        </mxCell>
        <mxCell id="uVn_jafMMcIAH3ZnY_Oj-190" value="p55" style="rounded=0;whiteSpace=wrap;html=1;container=0;" parent="1" vertex="1">
          <mxGeometry x="1000" y="530" width="40" height="40" as="geometry" />
        </mxCell>
        <mxCell id="uVn_jafMMcIAH3ZnY_Oj-191" value="p56" style="rounded=0;whiteSpace=wrap;html=1;container=0;" parent="1" vertex="1">
          <mxGeometry x="1040" y="530" width="40" height="40" as="geometry" />
        </mxCell>
        <mxCell id="uVn_jafMMcIAH3ZnY_Oj-192" value="p57" style="rounded=0;whiteSpace=wrap;html=1;container=0;" parent="1" vertex="1">
          <mxGeometry x="1080" y="530" width="40" height="40" as="geometry" />
        </mxCell>
        <mxCell id="uVn_jafMMcIAH3ZnY_Oj-193" value="p58" style="rounded=0;whiteSpace=wrap;html=1;container=0;" parent="1" vertex="1">
          <mxGeometry x="1120" y="530" width="40" height="40" as="geometry" />
        </mxCell>
        <mxCell id="uVn_jafMMcIAH3ZnY_Oj-194" value="p59" style="rounded=0;whiteSpace=wrap;html=1;container=0;" parent="1" vertex="1">
          <mxGeometry x="1160" y="530" width="40" height="40" as="geometry" />
        </mxCell>
        <mxCell id="uVn_jafMMcIAH3ZnY_Oj-196" value="p61" style="rounded=0;whiteSpace=wrap;html=1;container=0;" parent="1" vertex="1">
          <mxGeometry x="840" y="570" width="40" height="40" as="geometry" />
        </mxCell>
        <mxCell id="uVn_jafMMcIAH3ZnY_Oj-197" value="p62" style="rounded=0;whiteSpace=wrap;html=1;container=0;" parent="1" vertex="1">
          <mxGeometry x="880" y="570" width="40" height="40" as="geometry" />
        </mxCell>
        <mxCell id="uVn_jafMMcIAH3ZnY_Oj-198" value="p63" style="rounded=0;whiteSpace=wrap;html=1;container=0;" parent="1" vertex="1">
          <mxGeometry x="920" y="570" width="40" height="40" as="geometry" />
        </mxCell>
        <mxCell id="uVn_jafMMcIAH3ZnY_Oj-199" value="p64" style="rounded=0;whiteSpace=wrap;html=1;container=0;" parent="1" vertex="1">
          <mxGeometry x="960" y="570" width="40" height="40" as="geometry" />
        </mxCell>
        <mxCell id="uVn_jafMMcIAH3ZnY_Oj-200" value="p65" style="rounded=0;whiteSpace=wrap;html=1;container=0;" parent="1" vertex="1">
          <mxGeometry x="1000" y="570" width="40" height="40" as="geometry" />
        </mxCell>
        <mxCell id="uVn_jafMMcIAH3ZnY_Oj-201" value="p66" style="rounded=0;whiteSpace=wrap;html=1;container=0;" parent="1" vertex="1">
          <mxGeometry x="1040" y="570" width="40" height="40" as="geometry" />
        </mxCell>
        <mxCell id="uVn_jafMMcIAH3ZnY_Oj-202" value="p67" style="rounded=0;whiteSpace=wrap;html=1;container=0;" parent="1" vertex="1">
          <mxGeometry x="1080" y="570" width="40" height="40" as="geometry" />
        </mxCell>
        <mxCell id="uVn_jafMMcIAH3ZnY_Oj-203" value="p68" style="rounded=0;whiteSpace=wrap;html=1;container=0;" parent="1" vertex="1">
          <mxGeometry x="1120" y="570" width="40" height="40" as="geometry" />
        </mxCell>
        <mxCell id="uVn_jafMMcIAH3ZnY_Oj-204" value="p69" style="rounded=0;whiteSpace=wrap;html=1;container=0;" parent="1" vertex="1">
          <mxGeometry x="1160" y="570" width="40" height="40" as="geometry" />
        </mxCell>
        <mxCell id="uVn_jafMMcIAH3ZnY_Oj-206" value="p71" style="rounded=0;whiteSpace=wrap;html=1;container=0;" parent="1" vertex="1">
          <mxGeometry x="840" y="610" width="40" height="40" as="geometry" />
        </mxCell>
        <mxCell id="uVn_jafMMcIAH3ZnY_Oj-207" value="p72" style="rounded=0;whiteSpace=wrap;html=1;container=0;" parent="1" vertex="1">
          <mxGeometry x="880" y="610" width="40" height="40" as="geometry" />
        </mxCell>
        <mxCell id="uVn_jafMMcIAH3ZnY_Oj-208" value="p73" style="rounded=0;whiteSpace=wrap;html=1;container=0;" parent="1" vertex="1">
          <mxGeometry x="920" y="610" width="40" height="40" as="geometry" />
        </mxCell>
        <mxCell id="uVn_jafMMcIAH3ZnY_Oj-209" value="p74" style="rounded=0;whiteSpace=wrap;html=1;container=0;" parent="1" vertex="1">
          <mxGeometry x="960" y="610" width="40" height="40" as="geometry" />
        </mxCell>
        <mxCell id="uVn_jafMMcIAH3ZnY_Oj-210" value="p75" style="rounded=0;whiteSpace=wrap;html=1;container=0;" parent="1" vertex="1">
          <mxGeometry x="1000" y="610" width="40" height="40" as="geometry" />
        </mxCell>
        <mxCell id="uVn_jafMMcIAH3ZnY_Oj-211" value="p76" style="rounded=0;whiteSpace=wrap;html=1;container=0;" parent="1" vertex="1">
          <mxGeometry x="1040" y="610" width="40" height="40" as="geometry" />
        </mxCell>
        <mxCell id="uVn_jafMMcIAH3ZnY_Oj-212" value="p77" style="rounded=0;whiteSpace=wrap;html=1;container=0;" parent="1" vertex="1">
          <mxGeometry x="1080" y="610" width="40" height="40" as="geometry" />
        </mxCell>
        <mxCell id="uVn_jafMMcIAH3ZnY_Oj-213" value="p78" style="rounded=0;whiteSpace=wrap;html=1;container=0;" parent="1" vertex="1">
          <mxGeometry x="1120" y="610" width="40" height="40" as="geometry" />
        </mxCell>
        <mxCell id="uVn_jafMMcIAH3ZnY_Oj-214" value="p78" style="rounded=0;whiteSpace=wrap;html=1;container=0;" parent="1" vertex="1">
          <mxGeometry x="1160" y="610" width="40" height="40" as="geometry" />
        </mxCell>
        <mxCell id="uVn_jafMMcIAH3ZnY_Oj-216" value="p81" style="rounded=0;whiteSpace=wrap;html=1;container=0;" parent="1" vertex="1">
          <mxGeometry x="840" y="650" width="40" height="40" as="geometry" />
        </mxCell>
        <mxCell id="uVn_jafMMcIAH3ZnY_Oj-217" value="p82" style="rounded=0;whiteSpace=wrap;html=1;container=0;" parent="1" vertex="1">
          <mxGeometry x="880" y="650" width="40" height="40" as="geometry" />
        </mxCell>
        <mxCell id="uVn_jafMMcIAH3ZnY_Oj-218" value="p83" style="rounded=0;whiteSpace=wrap;html=1;container=0;" parent="1" vertex="1">
          <mxGeometry x="920" y="650" width="40" height="40" as="geometry" />
        </mxCell>
        <mxCell id="uVn_jafMMcIAH3ZnY_Oj-219" value="p84" style="rounded=0;whiteSpace=wrap;html=1;container=0;" parent="1" vertex="1">
          <mxGeometry x="960" y="650" width="40" height="40" as="geometry" />
        </mxCell>
        <mxCell id="uVn_jafMMcIAH3ZnY_Oj-220" value="p85" style="rounded=0;whiteSpace=wrap;html=1;container=0;" parent="1" vertex="1">
          <mxGeometry x="1000" y="650" width="40" height="40" as="geometry" />
        </mxCell>
        <mxCell id="uVn_jafMMcIAH3ZnY_Oj-221" value="p86" style="rounded=0;whiteSpace=wrap;html=1;container=0;" parent="1" vertex="1">
          <mxGeometry x="1040" y="650" width="40" height="40" as="geometry" />
        </mxCell>
        <mxCell id="uVn_jafMMcIAH3ZnY_Oj-222" value="p87" style="rounded=0;whiteSpace=wrap;html=1;container=0;" parent="1" vertex="1">
          <mxGeometry x="1080" y="650" width="40" height="40" as="geometry" />
        </mxCell>
        <mxCell id="uVn_jafMMcIAH3ZnY_Oj-223" value="p88" style="rounded=0;whiteSpace=wrap;html=1;container=0;" parent="1" vertex="1">
          <mxGeometry x="1120" y="650" width="40" height="40" as="geometry" />
        </mxCell>
        <mxCell id="uVn_jafMMcIAH3ZnY_Oj-224" value="p89" style="rounded=0;whiteSpace=wrap;html=1;container=0;" parent="1" vertex="1">
          <mxGeometry x="1160" y="650" width="40" height="40" as="geometry" />
        </mxCell>
        <mxCell id="uVn_jafMMcIAH3ZnY_Oj-226" value="p91" style="rounded=0;whiteSpace=wrap;html=1;container=0;" parent="1" vertex="1">
          <mxGeometry x="840" y="690" width="40" height="40" as="geometry" />
        </mxCell>
        <mxCell id="uVn_jafMMcIAH3ZnY_Oj-227" value="p92" style="rounded=0;whiteSpace=wrap;html=1;container=0;" parent="1" vertex="1">
          <mxGeometry x="880" y="690" width="40" height="40" as="geometry" />
        </mxCell>
        <mxCell id="uVn_jafMMcIAH3ZnY_Oj-228" value="p93" style="rounded=0;whiteSpace=wrap;html=1;container=0;" parent="1" vertex="1">
          <mxGeometry x="920" y="690" width="40" height="40" as="geometry" />
        </mxCell>
        <mxCell id="uVn_jafMMcIAH3ZnY_Oj-229" value="p94" style="rounded=0;whiteSpace=wrap;html=1;container=0;" parent="1" vertex="1">
          <mxGeometry x="960" y="690" width="40" height="40" as="geometry" />
        </mxCell>
        <mxCell id="uVn_jafMMcIAH3ZnY_Oj-230" value="p95" style="rounded=0;whiteSpace=wrap;html=1;container=0;" parent="1" vertex="1">
          <mxGeometry x="1000" y="690" width="40" height="40" as="geometry" />
        </mxCell>
        <mxCell id="uVn_jafMMcIAH3ZnY_Oj-231" value="p96" style="rounded=0;whiteSpace=wrap;html=1;container=0;" parent="1" vertex="1">
          <mxGeometry x="1040" y="690" width="40" height="40" as="geometry" />
        </mxCell>
        <mxCell id="uVn_jafMMcIAH3ZnY_Oj-232" value="p97" style="rounded=0;whiteSpace=wrap;html=1;container=0;" parent="1" vertex="1">
          <mxGeometry x="1080" y="690" width="40" height="40" as="geometry" />
        </mxCell>
        <mxCell id="uVn_jafMMcIAH3ZnY_Oj-233" value="p98" style="rounded=0;whiteSpace=wrap;html=1;container=0;" parent="1" vertex="1">
          <mxGeometry x="1120" y="690" width="40" height="40" as="geometry" />
        </mxCell>
        <mxCell id="uVn_jafMMcIAH3ZnY_Oj-234" value="p99" style="rounded=0;whiteSpace=wrap;html=1;container=0;" parent="1" vertex="1">
          <mxGeometry x="1160" y="690" width="40" height="40" as="geometry" />
        </mxCell>
      </root>
    </mxGraphModel>
  </diagram>
</mxfile>
